<svg xmlns="http://www.w3.org/2000/svg" xmlns:xlink="http://www.w3.org/1999/xlink" version="1.1" x="0px" y="0px" viewBox="0 0 100 125" enable-background="new 0 0 100 100" xml:space="preserve"><g><path fill="#000000" d="M94.994,48.659c-0.063-0.849-0.561-1.607-1.367-2.08l-2.613-1.536l-2.475,1.985l3.182,1.87L41.745,88.991   c-0.108,0.087-0.345,0.174-0.632,0.174c-0.212,0-0.371-0.049-0.45-0.096L8.28,70.05l3.313-2.657l-2.735-1.606l-2.8,2.246   c-0.729,0.586-1.111,1.407-1.051,2.256c0.062,0.849,0.56,1.606,1.366,2.08l32.789,19.257c0.562,0.329,1.236,0.504,1.951,0.504   c0.926,0,1.832-0.301,2.486-0.826l50.344-40.389C94.672,50.33,95.055,49.507,94.994,48.659z"/><g><path fill="#000000" d="M60.824,67.361l-19.08,15.307c-0.108,0.087-0.345,0.175-0.632,0.175c-0.212,0-0.371-0.05-0.45-0.096    L8.28,63.728l3.313-2.657l-2.735-1.606l-2.8,2.246c-0.729,0.585-1.111,1.407-1.051,2.256c0.062,0.848,0.56,1.606,1.366,2.08    l32.789,19.256c0.562,0.33,1.236,0.505,1.951,0.505c0.926,0,1.832-0.302,2.486-0.826l17.225-13.819V67.361z"/><path fill="#000000" d="M94.994,42.336c-0.063-0.849-0.561-1.606-1.367-2.08l-2.613-1.536l-2.475,1.985l3.182,1.869L75.172,55.853    v3.799l18.771-15.059C94.672,44.007,95.055,43.185,94.994,42.336z"/></g><g><path fill="#000000" d="M41.113,73.161c-0.715,0-1.39-0.174-1.951-0.504L6.373,53.4c-0.806-0.473-1.304-1.231-1.366-2.079    c-0.062-0.849,0.321-1.671,1.051-2.256L56.402,8.678c1.158-0.93,3.148-1.079,4.436-0.323l32.789,19.256    c0.807,0.474,1.305,1.231,1.367,2.08c0.061,0.848-0.322,1.67-1.051,2.255L43.599,72.335C42.945,72.86,42.039,73.161,41.113,73.161    z M8.279,51.082l32.384,19.02c0.079,0.047,0.238,0.096,0.45,0.096c0.287,0,0.523-0.087,0.632-0.174L91.721,29.93l-32.383-19.02    c-0.078-0.046-0.238-0.096-0.451-0.096c-0.285,0-0.521,0.087-0.631,0.174L8.279,51.082z"/></g><g><path fill="#000000" d="M47.897,29.089c3.812,0.572,7.794,1.917,11.345,4.002c3.551,2.085,6.102,4.579,7.516,7.075l4.533,2.662    l12.523-10.046c-2.863-1.68-3.482-4.404-1.389-6.084L64.859,16.381c-2.096,1.68-6.113,1.681-8.973,0L43.364,26.427L47.897,29.089z    "/><path fill="#000000" d="M53.059,52.055c-4.095-0.479-8.454-1.874-12.301-4.133c-3.849-2.26-6.531-5-7.854-7.703l-3.886-2.282    L16.187,48.23c2.86,1.68,3.481,4.405,1.388,6.084l17.566,10.316c2.094-1.681,6.111-1.681,8.972-0.001l12.833-10.293L53.059,52.055    z"/></g><g><path fill="#000000" d="M60.824,61.039l-19.08,15.307c-0.108,0.087-0.345,0.174-0.632,0.174c-0.212,0-0.371-0.049-0.45-0.095    L8.279,57.404l3.313-2.657l-2.734-1.605l-2.8,2.246c-0.729,0.585-1.112,1.407-1.051,2.256c0.063,0.849,0.561,1.606,1.366,2.08    l32.789,19.256c0.562,0.33,1.236,0.504,1.951,0.504c0.926,0,1.832-0.301,2.486-0.826l17.225-13.819V61.039z"/><path fill="#000000" d="M94.994,36.014c-0.063-0.848-0.561-1.606-1.367-2.08l-2.613-1.536l-2.475,1.985l3.182,1.869L75.172,49.53    v3.799l18.771-15.06C94.672,37.685,95.055,36.862,94.994,36.014z"/></g><path fill="#000000" d="M75.041,43.312L39.354,22.354L22.535,35.847l36.809,21.617v21.208l17.309-13.887V45.818L75.041,43.312z    M39.615,25.944l32.952,19.353l-8.191,6.572l-3.68,2.953L27.742,35.469L39.615,25.944z M73.689,63.363l-11.383,9.132V57.327   L70,51.155l3.689-2.959V63.363z"/></g><text x="0" y="115" fill="#000000" font-size="5px" font-weight="bold" font-family="'Helvetica Neue', Helvetica, Arial-Unicode, Arial, Sans-serif">Created by Gabriele Malaspina</text><text x="0" y="120" fill="#000000" font-size="5px" font-weight="bold" font-family="'Helvetica Neue', Helvetica, Arial-Unicode, Arial, Sans-serif">from the Noun Project</text></svg>